<mxfile host="www.draw.io" modified="2020-02-06T00:04:41.648Z" agent="Mozilla/5.0 (Macintosh; Intel Mac OS X 10_15_2) AppleWebKit/537.36 (KHTML, like Gecko) Chrome/79.0.3945.130 Safari/537.36" etag="MhbEjpRn7Pug9j6F2Qp1" version="12.6.5" type="github">
  <diagram id="prtHgNgQTEPvFCAcTncT" name="Page-1">
    <mxGraphModel dx="2013" dy="657" grid="1" gridSize="10" guides="1" tooltips="1" connect="1" arrows="1" fold="1" page="1" pageScale="1" pageWidth="827" pageHeight="1169" math="0" shadow="0">
      <root>
        <mxCell id="0"/>
        <mxCell id="1" parent="0"/>
        <mxCell id="dNxyNK7c78bLwvsdeMH5-11" value="Smart Horizontals" style="swimlane;html=1;startSize=20;horizontal=1;containerType=tree;glass=0;" parent="1" vertex="1">
          <mxGeometry x="-10" y="110" width="1330" height="619" as="geometry"/>
        </mxCell>
        <mxCell id="RYNxEgdlnpWthMYJhhDc-46" value="" style="whiteSpace=wrap;html=1;aspect=fixed;" vertex="1" parent="dNxyNK7c78bLwvsdeMH5-11">
          <mxGeometry x="750" y="260" width="300" height="300" as="geometry"/>
        </mxCell>
        <mxCell id="RYNxEgdlnpWthMYJhhDc-32" value="Armanali Khan&lt;br&gt;QA Load" style="rounded=0;whiteSpace=wrap;html=1;align=right;" vertex="1" parent="dNxyNK7c78bLwvsdeMH5-11">
          <mxGeometry x="810" y="182" width="170" height="60" as="geometry"/>
        </mxCell>
        <mxCell id="RYNxEgdlnpWthMYJhhDc-1" value="Bindu Padmalayam" style="rounded=0;whiteSpace=wrap;html=1;align=right;" vertex="1" parent="dNxyNK7c78bLwvsdeMH5-11">
          <mxGeometry x="540" y="40" width="150" height="60" as="geometry"/>
        </mxCell>
        <mxCell id="RYNxEgdlnpWthMYJhhDc-2" value="" style="shape=image;html=1;verticalAlign=top;verticalLabelPosition=bottom;labelBackgroundColor=#ffffff;imageAspect=0;aspect=fixed;image=https://cdn1.iconfinder.com/data/icons/avatar-vol-9/512/10-128.png" vertex="1" parent="dNxyNK7c78bLwvsdeMH5-11">
          <mxGeometry x="540" y="40" width="48" height="48" as="geometry"/>
        </mxCell>
        <mxCell id="RYNxEgdlnpWthMYJhhDc-3" value="SRE Lead" style="rounded=0;whiteSpace=wrap;html=1;align=center;" vertex="1" parent="dNxyNK7c78bLwvsdeMH5-11">
          <mxGeometry x="210" y="180" width="150" height="60" as="geometry"/>
        </mxCell>
        <mxCell id="RYNxEgdlnpWthMYJhhDc-5" value="" style="shape=image;html=1;verticalAlign=top;verticalLabelPosition=bottom;labelBackgroundColor=#ffffff;imageAspect=0;aspect=fixed;image=https://cdn4.iconfinder.com/data/icons/avatar-vol-1-3/512/9-128.png" vertex="1" parent="dNxyNK7c78bLwvsdeMH5-11">
          <mxGeometry x="210" y="186" width="48" height="48" as="geometry"/>
        </mxCell>
        <mxCell id="RYNxEgdlnpWthMYJhhDc-6" value="" style="rounded=0;whiteSpace=wrap;html=1;" vertex="1" parent="dNxyNK7c78bLwvsdeMH5-11">
          <mxGeometry x="190" y="280" width="190" height="70" as="geometry"/>
        </mxCell>
        <mxCell id="RYNxEgdlnpWthMYJhhDc-7" value="SRE &lt;br&gt;SMART &lt;br&gt;APPS" style="shape=image;html=1;verticalAlign=top;verticalLabelPosition=bottom;labelBackgroundColor=#ffffff;imageAspect=0;aspect=fixed;image=https://cdn4.iconfinder.com/data/icons/avatar-vol-1-3/512/9-128.png" vertex="1" parent="dNxyNK7c78bLwvsdeMH5-11">
          <mxGeometry x="210" y="291" width="48" height="48" as="geometry"/>
        </mxCell>
        <mxCell id="RYNxEgdlnpWthMYJhhDc-9" value="SRE CML&lt;br&gt;&amp;amp; SPG" style="shape=image;html=1;verticalAlign=top;verticalLabelPosition=bottom;labelBackgroundColor=#ffffff;imageAspect=0;aspect=fixed;image=https://cdn4.iconfinder.com/data/icons/avatar-vol-1-3/512/9-128.png" vertex="1" parent="dNxyNK7c78bLwvsdeMH5-11">
          <mxGeometry x="328" y="296" width="48" height="48" as="geometry"/>
        </mxCell>
        <mxCell id="RYNxEgdlnpWthMYJhhDc-10" value="SRE CLIP&amp;nbsp;&lt;br&gt;Analytics" style="shape=image;html=1;verticalAlign=top;verticalLabelPosition=bottom;labelBackgroundColor=#ffffff;imageAspect=0;aspect=fixed;image=https://cdn1.iconfinder.com/data/icons/avatar-vol-9/512/10-128.png" vertex="1" parent="dNxyNK7c78bLwvsdeMH5-11">
          <mxGeometry x="271" y="291" width="48" height="48" as="geometry"/>
        </mxCell>
        <mxCell id="RYNxEgdlnpWthMYJhhDc-13" value="" style="endArrow=none;html=1;entryX=0.5;entryY=1;entryDx=0;entryDy=0;exitX=0.5;exitY=0;exitDx=0;exitDy=0;" edge="1" parent="dNxyNK7c78bLwvsdeMH5-11" source="RYNxEgdlnpWthMYJhhDc-6" target="RYNxEgdlnpWthMYJhhDc-3">
          <mxGeometry width="50" height="50" relative="1" as="geometry">
            <mxPoint x="280" y="290" as="sourcePoint"/>
            <mxPoint x="330" y="240" as="targetPoint"/>
          </mxGeometry>
        </mxCell>
        <mxCell id="RYNxEgdlnpWthMYJhhDc-14" value="" style="endArrow=none;html=1;exitX=0.5;exitY=0;exitDx=0;exitDy=0;entryX=0.453;entryY=1.033;entryDx=0;entryDy=0;entryPerimeter=0;" edge="1" parent="dNxyNK7c78bLwvsdeMH5-11" source="RYNxEgdlnpWthMYJhhDc-3" target="RYNxEgdlnpWthMYJhhDc-1">
          <mxGeometry width="50" height="50" relative="1" as="geometry">
            <mxPoint x="270" y="130" as="sourcePoint"/>
            <mxPoint x="320" y="80" as="targetPoint"/>
          </mxGeometry>
        </mxCell>
        <mxCell id="RYNxEgdlnpWthMYJhhDc-15" value="Dev Ops Lead" style="rounded=0;whiteSpace=wrap;html=1;align=right;" vertex="1" parent="dNxyNK7c78bLwvsdeMH5-11">
          <mxGeometry x="530" y="180" width="150" height="60" as="geometry"/>
        </mxCell>
        <mxCell id="RYNxEgdlnpWthMYJhhDc-17" value="" style="rounded=0;whiteSpace=wrap;html=1;" vertex="1" parent="dNxyNK7c78bLwvsdeMH5-11">
          <mxGeometry x="510" y="280" width="190" height="70" as="geometry"/>
        </mxCell>
        <mxCell id="RYNxEgdlnpWthMYJhhDc-21" value="" style="endArrow=none;html=1;entryX=0.5;entryY=1;entryDx=0;entryDy=0;exitX=0.5;exitY=0;exitDx=0;exitDy=0;" edge="1" source="RYNxEgdlnpWthMYJhhDc-17" target="RYNxEgdlnpWthMYJhhDc-15" parent="dNxyNK7c78bLwvsdeMH5-11">
          <mxGeometry width="50" height="50" relative="1" as="geometry">
            <mxPoint x="610" y="180" as="sourcePoint"/>
            <mxPoint x="660" y="130" as="targetPoint"/>
          </mxGeometry>
        </mxCell>
        <mxCell id="RYNxEgdlnpWthMYJhhDc-24" value="" style="endArrow=none;html=1;exitX=0.547;exitY=-0.067;exitDx=0;exitDy=0;exitPerimeter=0;" edge="1" parent="dNxyNK7c78bLwvsdeMH5-11" source="RYNxEgdlnpWthMYJhhDc-15">
          <mxGeometry width="50" height="50" relative="1" as="geometry">
            <mxPoint x="610" y="170" as="sourcePoint"/>
            <mxPoint x="610" y="100" as="targetPoint"/>
          </mxGeometry>
        </mxCell>
        <mxCell id="RYNxEgdlnpWthMYJhhDc-27" value="DevOps &lt;br&gt;Smart Apps" style="shape=image;html=1;verticalAlign=top;verticalLabelPosition=bottom;labelBackgroundColor=#ffffff;imageAspect=0;aspect=fixed;image=https://cdn0.iconfinder.com/data/icons/avatar-vol-2-4/512/2-128.png" vertex="1" parent="dNxyNK7c78bLwvsdeMH5-11">
          <mxGeometry x="520" y="286" width="58" height="58" as="geometry"/>
        </mxCell>
        <mxCell id="RYNxEgdlnpWthMYJhhDc-28" value="Dev Ops&lt;br&gt;CML &amp;amp; SPG" style="shape=image;html=1;verticalAlign=top;verticalLabelPosition=bottom;labelBackgroundColor=#ffffff;imageAspect=0;aspect=fixed;image=https://cdn0.iconfinder.com/data/icons/avatar-vol-2-4/512/2-128.png" vertex="1" parent="dNxyNK7c78bLwvsdeMH5-11">
          <mxGeometry x="622" y="286" width="58" height="58" as="geometry"/>
        </mxCell>
        <mxCell id="RYNxEgdlnpWthMYJhhDc-29" value="" style="shape=image;html=1;verticalAlign=top;verticalLabelPosition=bottom;labelBackgroundColor=#ffffff;imageAspect=0;aspect=fixed;image=https://cdn0.iconfinder.com/data/icons/avatar-vol-2-4/512/2-128.png" vertex="1" parent="dNxyNK7c78bLwvsdeMH5-11">
          <mxGeometry x="530" y="182" width="58" height="58" as="geometry"/>
        </mxCell>
        <mxCell id="RYNxEgdlnpWthMYJhhDc-31" value="" style="shape=image;html=1;verticalAlign=top;verticalLabelPosition=bottom;labelBackgroundColor=#ffffff;imageAspect=0;aspect=fixed;image=https://cdn0.iconfinder.com/data/icons/avatar-vol-2-4/512/8-128.png" vertex="1" parent="dNxyNK7c78bLwvsdeMH5-11">
          <mxGeometry x="820" y="186" width="56" height="56" as="geometry"/>
        </mxCell>
        <mxCell id="RYNxEgdlnpWthMYJhhDc-35" value="" style="endArrow=none;html=1;entryX=0.5;entryY=1;entryDx=0;entryDy=0;" edge="1" parent="dNxyNK7c78bLwvsdeMH5-11" target="RYNxEgdlnpWthMYJhhDc-1">
          <mxGeometry width="50" height="50" relative="1" as="geometry">
            <mxPoint x="890" y="180" as="sourcePoint"/>
            <mxPoint x="780" y="110" as="targetPoint"/>
          </mxGeometry>
        </mxCell>
        <mxCell id="RYNxEgdlnpWthMYJhhDc-36" value="Smart Email &lt;br&gt;QA Team" style="rounded=0;whiteSpace=wrap;html=1;align=right;" vertex="1" parent="dNxyNK7c78bLwvsdeMH5-11">
          <mxGeometry x="760" y="284" width="130" height="60" as="geometry"/>
        </mxCell>
        <mxCell id="RYNxEgdlnpWthMYJhhDc-37" value="" style="shape=image;html=1;verticalAlign=top;verticalLabelPosition=bottom;labelBackgroundColor=#ffffff;imageAspect=0;aspect=fixed;image=https://cdn0.iconfinder.com/data/icons/user-collection-4/512/users-128.png" vertex="1" parent="dNxyNK7c78bLwvsdeMH5-11">
          <mxGeometry x="769" y="288" width="51" height="51" as="geometry"/>
        </mxCell>
        <mxCell id="RYNxEgdlnpWthMYJhhDc-38" value="Smart Call&amp;nbsp;&lt;br&gt;QA Team" style="rounded=0;whiteSpace=wrap;html=1;align=right;" vertex="1" parent="dNxyNK7c78bLwvsdeMH5-11">
          <mxGeometry x="910" y="285" width="130" height="60" as="geometry"/>
        </mxCell>
        <mxCell id="RYNxEgdlnpWthMYJhhDc-39" value="" style="shape=image;html=1;verticalAlign=top;verticalLabelPosition=bottom;labelBackgroundColor=#ffffff;imageAspect=0;aspect=fixed;image=https://cdn0.iconfinder.com/data/icons/user-collection-4/512/users-128.png" vertex="1" parent="dNxyNK7c78bLwvsdeMH5-11">
          <mxGeometry x="920" y="291" width="51" height="51" as="geometry"/>
        </mxCell>
        <mxCell id="RYNxEgdlnpWthMYJhhDc-40" value="Smart &lt;br&gt;Schedule&amp;nbsp;&lt;br&gt;QA Team" style="rounded=0;whiteSpace=wrap;html=1;align=right;" vertex="1" parent="dNxyNK7c78bLwvsdeMH5-11">
          <mxGeometry x="760" y="360" width="130" height="60" as="geometry"/>
        </mxCell>
        <mxCell id="RYNxEgdlnpWthMYJhhDc-41" value="" style="shape=image;html=1;verticalAlign=top;verticalLabelPosition=bottom;labelBackgroundColor=#ffffff;imageAspect=0;aspect=fixed;image=https://cdn0.iconfinder.com/data/icons/user-collection-4/512/users-128.png" vertex="1" parent="dNxyNK7c78bLwvsdeMH5-11">
          <mxGeometry x="770" y="366" width="51" height="51" as="geometry"/>
        </mxCell>
        <mxCell id="RYNxEgdlnpWthMYJhhDc-42" value="Smart &lt;br&gt;Connect&amp;nbsp;&lt;br&gt;QA Team" style="rounded=0;whiteSpace=wrap;html=1;align=right;" vertex="1" parent="dNxyNK7c78bLwvsdeMH5-11">
          <mxGeometry x="910" y="361.5" width="130" height="60" as="geometry"/>
        </mxCell>
        <mxCell id="RYNxEgdlnpWthMYJhhDc-43" value="" style="shape=image;html=1;verticalAlign=top;verticalLabelPosition=bottom;labelBackgroundColor=#ffffff;imageAspect=0;aspect=fixed;image=https://cdn0.iconfinder.com/data/icons/user-collection-4/512/users-128.png" vertex="1" parent="dNxyNK7c78bLwvsdeMH5-11">
          <mxGeometry x="920" y="367.5" width="51" height="51" as="geometry"/>
        </mxCell>
        <mxCell id="RYNxEgdlnpWthMYJhhDc-44" value="CML&amp;nbsp;&lt;br&gt;QA Team" style="rounded=0;whiteSpace=wrap;html=1;align=right;" vertex="1" parent="dNxyNK7c78bLwvsdeMH5-11">
          <mxGeometry x="760" y="430" width="130" height="60" as="geometry"/>
        </mxCell>
        <mxCell id="RYNxEgdlnpWthMYJhhDc-45" value="" style="shape=image;html=1;verticalAlign=top;verticalLabelPosition=bottom;labelBackgroundColor=#ffffff;imageAspect=0;aspect=fixed;image=https://cdn0.iconfinder.com/data/icons/user-collection-4/512/users-128.png" vertex="1" parent="dNxyNK7c78bLwvsdeMH5-11">
          <mxGeometry x="770" y="436" width="51" height="51" as="geometry"/>
        </mxCell>
        <mxCell id="RYNxEgdlnpWthMYJhhDc-47" value="Performance &lt;br&gt;Testers" style="rounded=0;whiteSpace=wrap;html=1;align=right;" vertex="1" parent="dNxyNK7c78bLwvsdeMH5-11">
          <mxGeometry x="910" y="436" width="130" height="60" as="geometry"/>
        </mxCell>
        <mxCell id="RYNxEgdlnpWthMYJhhDc-48" value="" style="shape=image;html=1;verticalAlign=top;verticalLabelPosition=bottom;labelBackgroundColor=#ffffff;imageAspect=0;aspect=fixed;image=https://cdn0.iconfinder.com/data/icons/user-collection-4/512/users-128.png" vertex="1" parent="dNxyNK7c78bLwvsdeMH5-11">
          <mxGeometry x="920" y="442" width="51" height="51" as="geometry"/>
        </mxCell>
        <mxCell id="RYNxEgdlnpWthMYJhhDc-51" value="" style="endArrow=none;html=1;entryX=0.582;entryY=1.017;entryDx=0;entryDy=0;entryPerimeter=0;" edge="1" parent="dNxyNK7c78bLwvsdeMH5-11" source="RYNxEgdlnpWthMYJhhDc-46" target="RYNxEgdlnpWthMYJhhDc-32">
          <mxGeometry width="50" height="50" relative="1" as="geometry">
            <mxPoint x="890" y="300" as="sourcePoint"/>
            <mxPoint x="940" y="250" as="targetPoint"/>
          </mxGeometry>
        </mxCell>
        <mxCell id="RYNxEgdlnpWthMYJhhDc-33" value="" style="endArrow=none;html=1;" edge="1" parent="1">
          <mxGeometry width="50" height="50" relative="1" as="geometry">
            <mxPoint x="-10" y="630" as="sourcePoint"/>
            <mxPoint x="40" y="580" as="targetPoint"/>
          </mxGeometry>
        </mxCell>
      </root>
    </mxGraphModel>
  </diagram>
</mxfile>
